<?xml version="1.0" encoding="UTF-8"?>
<svg width="1112px" height="1012px" viewBox="0 0 1112 1012" version="1.1" xmlns="http://www.w3.org/2000/svg" xmlns:xlink="http://www.w3.org/1999/xlink">
    <title>prabhsng</title>
    <defs>
        <rect id="path-1" x="0" y="0" width="1112" height="1011.34483"></rect>
    </defs>
    <g id="Logo" stroke="none" stroke-width="1" fill="none" fill-rule="evenodd">
        <g id="Artboard" transform="translate(-7064.000000, -3721.000000)">
            <g id="prabhsng" transform="translate(7064.000000, 3721.000000)">
                <mask id="mask-2" fill="white">
                    <use xlink:href="#path-1"></use>
                </mask>
                <g id="Rectangle"></g>
                <g id="Group-3-Copy" mask="url(#mask-2)">
                    <g transform="translate(-105.448276, -76.689655)" id="Group-2">
                        <g transform="translate(682.648913, 682.085159) rotate(45.000000) translate(-682.648913, -682.085159) translate(199.148913, 201.085159)">
                            <path d="M574.163516,784.239018 C790.876035,784.239018 966.556243,608.681134 966.556243,392.119509 C966.556243,175.557884 790.876035,0 574.163516,0 C572.75319,0 571.344603,0 569.93779,0.0222684321 C493.868668,0.824331809 357.319822,0.824331809 160.291251,0.0222684321 L160.291251,165.377329 C374.541419,165.377329 508.918918,165.377329 563.423747,165.377329 C645.180991,165.377329 800.127273,218.099025 800.127273,392.119509 C800.127273,566.139993 641.165004,622.248353 551.661191,622.248353 C500.199282,622.248353 423.173052,622.248353 320.582502,622.248353 L320.582502,481.081017 C464.040557,481.081017 544.987639,481.081017 563.423747,481.081017 C591.077909,481.081017 644.102796,469.42623 644.102796,400.728127 C644.102796,354.929392 617.20978,327.773204 563.423747,319.259563 L160.291251,319.259563 L160.291251,961.747505 L320.582502,961.747505 L320.582502,784.23154 C436.156501,783.918048 519.867103,783.918048 571.714307,784.23154 C572.530122,784.236523 573.346527,784.239018 574.163516,784.239018 Z" id="Oval" fill="#000000"></path>
                            <rect id="Rectangle" fill="#00FFC6" x="0" y="163.497076" width="160.291251" height="160.291251"></rect>
                        </g>
                    </g>
                </g>
            </g>
        </g>
    </g>
</svg>